<?xml version="1.0" encoding="utf-8"?>
<!-- Generator: Adobe Illustrator 24.0.2, SVG Export Plug-In . SVG Version: 6.00 Build 0)  -->
<svg version="1.1" id="Layer_1" xmlns="http://www.w3.org/2000/svg" xmlns:xlink="http://www.w3.org/1999/xlink" x="0px" y="0px"
	 viewBox="0 0 192 192" style="enable-background:new 0 0 192 192;" xml:space="preserve">
<style type="text/css">
	.st0{stroke:#000000;stroke-miterlimit:10;}
</style>
<g>
	<path class="st0" d="M171.27,72.87l4.84,7.66c-1.18-40.17-37.2-72.41-81.5-72.41c-41.95,0-76.48,28.91-81.03,66.09H1.22l18.85,29.8
		l18.85-29.8H23.25c4.5-32.34,34.73-57.34,71.37-57.34c38.94,0,70.64,28.24,71.91,63.5L171.27,72.87z"/>
	<path class="st0" d="M20.13,109.99l-4.85-7.66c1.2,40.17,37.22,72.4,81.52,72.39c41.95-0.01,76.47-28.93,81.01-66.11l12.37,0
		l-18.86-29.8l-18.84,29.81l15.67,0c-4.49,32.34-34.71,57.35-71.36,57.36c-38.94,0.01-70.65-28.22-71.93-63.49L20.13,109.99z"/>
</g>
</svg>
