<?xml version="1.0" encoding="utf-8"?><svg version="1.1" id="Layer_1" xmlns="http://www.w3.org/2000/svg" xmlns:xlink="http://www.w3.org/1999/xlink" x="0px" y="0px" viewBox="0 0 198.43 226.77" style="enable-background:new 0 0 198.43 226.77;" xml:space="preserve">
<style>
.RainCloud{
    fill:#B3B3B4;
}

.Raindrop1, .Raindrop2, .Raindrop3, .Raindrop4, .Raindrop5, .Raindrop6, .Raindrop7, .Raindrop8, .Raindrop9, .Raindrop10{
    fill:#21385f;
    position: relative;
    animation-iteration-count: infinite;
    animation-timing-function: linear;
}

.Raindrop1{
    animation-name: Raindrop1;
    animation-delay: 0.2s;
    animation-duration: 1s;
}
@keyframes Raindrop1{
    100% { transform: translateY(90px); }
}

.Raindrop2{
    animation-name: Raindrop2;
    animation-delay: 0.9s;
    animation-duration: 1s;
}
@keyframes Raindrop2{
    100% { transform: translateY(90px); }
}

.Raindrop3{
    animation-name: Raindrop3;
    animation-delay: 0.5s;
    animation-duration: 1s;
}
@keyframes Raindrop3{
    100% { transform: translateY(90px); }
}

.Raindrop4{
    animation-name: Raindrop4;
    animation-delay: 0.2s;
    animation-duration: 1s;
}
@keyframes Raindrop4{
    100% { transform: translateY(90px); }
}

.Raindrop5{
    animation-name: Raindrop5;
    animation-delay: 0.8s;
    animation-duration: 1s;
}
@keyframes Raindrop5{
    100% { transform: translateY(90px); }
}

.Raindrop6{
    animation-name: Raindrop6;
    animation-delay: 0.6s;
    animation-duration: 1s;
}
@keyframes Raindrop6{
    100% { transform: translateY(90px); }
}

.Raindrop7{
    animation-name: Raindrop7;
    animation-delay: 0.8s;
    animation-duration: 1s;
}
@keyframes Raindrop7{
    100% { transform: translateY(90px); }
}

.Raindrop8{
    animation-name: Raindrop8;
    animation-delay: 0.4s;
    animation-duration: 1s;
}
@keyframes Raindrop8{
    100% { transform: translateY(90px); }
}

.Raindrop9{
    animation-name: Raindrop9;
    animation-delay: 0.1s;
    animation-duration: 1s;
}
@keyframes Raindrop9{
    100% { transform: translateY(90px); }
}

.Raindrop10{
    animation-name: Raindrop10;
    animation-delay: 0.7s;
    animation-duration: 1s;
}
@keyframes Raindrop10{
    100% { transform: translateY(90px); }
}
</style>
<path class="Raindrop1" d="M82.18,91.32l0.01-0.2c0,0-15.53,16.56-1.44,20.42l-0.01,0.15C94.87,109.88,83.12,92.66,82.18,91.32z"/><path class="Raindrop2" d="M69.77,91.32l0.01-0.2c0,0-15.53,16.56-1.44,20.42l-0.01,0.15C82.47,109.88,70.71,92.66,69.77,91.32z"/><path class="Raindrop3" d="M57.37,91.32l0.01-0.2c0,0-15.53,16.56-1.44,20.42l-0.01,0.15C70.06,109.88,58.31,92.66,57.37,91.32z"/><path class="Raindrop4" d="M44.96,91.32l0.01-0.2c0,0-15.53,16.56-1.44,20.42l-0.01,0.15C57.66,109.88,45.9,92.66,44.96,91.32z"/><path class="Raindrop5" d="M94.58,91.32l0.01-0.2c0,0-15.53,16.56-1.44,20.42l-0.01,0.15C107.28,109.88,95.52,92.66,94.58,91.32z"/><path class="Raindrop6" d="M156.61,91.32l0.01-0.2c0,0-15.53,16.56-1.44,20.42l-0.01,0.15C169.3,109.88,157.55,92.66,156.61,91.32z"/><path class="Raindrop7" d="M144.2,91.32l0.01-0.2c0,0-15.53,16.56-1.44,20.42l-0.01,0.15C156.9,109.88,145.14,92.66,144.2,91.32z"/><path class="Raindrop8" d="M131.8,91.32l0.01-0.2c0,0-15.53,16.56-1.44,20.42l-0.01,0.15C144.49,109.88,132.74,92.66,131.8,91.32z"/><path class="Raindrop9" d="M106.99,91.32l0.01-0.2c0,0-15.53,16.56-1.44,20.42l-0.01,0.15C119.68,109.88,107.93,92.66,106.99,91.32z"/><path class="Raindrop10" d="M119.39,91.32l0.01-0.2c0,0-15.53,16.56-1.44,20.42l-0.01,0.15C132.09,109.88,120.33,92.66,119.39,91.32z"/><path class="RainCloud" d="M141.06,47.71c0-0.19,0.01-0.39,0.01-0.58c0-22.92-18.58-41.5-41.5-41.5s-41.5,18.58-41.5,41.5c0,0.17,0.01,0.34,0.01,0.51c-0.17,0-0.34-0.01-0.51-0.01c-22.92,0-41.5,18.58-41.5,41.5c0,21.05,15.68,38.43,36,41.13v0.17h1.44c1.33,0.13,2.69,0.2,4.06,0.2s2.72-0.07,4.06-0.2h72.44v-0.05c1.48,0.16,2.98,0.25,4.5,0.25c22.92,0,41.5-18.58,41.5-41.5C180.07,67.04,162.82,48.99,141.06,47.71z"/></svg>