<?xml version="1.0" encoding="utf-8"?>
<!-- Generator: Adobe Illustrator 23.1.0, SVG Export Plug-In . SVG Version: 6.00 Build 0)  -->
<svg version="1.1" id="Layer_1" xmlns="http://www.w3.org/2000/svg" xmlns:xlink="http://www.w3.org/1999/xlink" x="0px" y="0px"
	 viewBox="0 0 198.43 226.77" style="enable-background:new 0 0 198.43 226.77;" xml:space="preserve">
<style type="text/css">
.SnowCloud{
    fill:#898480;
}

.Snowball{
    fill:#FFFFFF;
    stroke:#000000;
    stroke-miterlimit:10;
    position: relative;
    animation-iteration-count: infinite;
    animation-timing-function: linear;
}
#Snow1{
    animation-name: Snow1;
    animation-delay: 1s;
    animation-duration: 3s;
}
#Snow2{
    animation-name: Snow2;
    animation-delay: 2.5s;
    animation-duration: 3s;
}
#Snow3{
    animation-name: Snow3;
    animation-delay: 0s;
    animation-duration: 3s;
}
#Snow4{
    animation-name: Snow4;
    animation-delay: 1s;
    animation-duration: 3s;
}
#Snow5{
    animation-name: Snow5;
    animation-delay: 2s;
    animation-duration: 3s;
}
#Snow6{
    animation-name: Snow6;
    animation-delay: 1.5s;
    animation-duration: 3s;
}
#Snow7{
    animation-name: Snow7;
    animation-delay: 0s;
    animation-duration: 3s;
}
#Snow8{
    animation-name: Snow8;
    animation-delay: 2.25s;
    animation-duration: 3s;
}

@keyframes Snow1{
    0% {}
    100% { transform: translateY(100px); }
}

@keyframes Snow2{
    0% {}
    100% { transform: translateY(100px); }
}

@keyframes Snow3{
    0% {}
    100% { transform: translateY(100px); }
}

@keyframes Snow4{
    0% {}
    100% { transform: translateY(100px); }
}

@keyframes Snow5{
    0% {}
    100% { transform: translateY(100px); }
}

@keyframes Snow6{
    0% {}
    100% { transform: translateY(100px); }
}

@keyframes Snow7{
    0% {}
    100% { transform: translateY(100px); }
}

@keyframes Snow8{
    0% {}
    100% { transform: translateY(100px); }
}
</style>
<circle id="Snow2" class="Snowball" cx="58.73" cy="82.73" r="10.38"/>
<circle id="Snow8" class="Snowball" cx="137.1" cy="82.73" r="10.38"/>
<circle id="Snow4" class="Snowball" cx="87.54" cy="82.73" r="10.38"/>
<circle id="Snow6" class="Snowball" cx="105.98" cy="82.73" r="10.38"/>
<circle id="Snow7" class="Snowball" cx="122.73" cy="82.73" r="10.38"/>
<circle id="Snow1" class="Snowball" cx="53.73" cy="82.73" r="10.38"/>
<circle id="Snow5" class="Snowball" cx="95.92" cy="82.85" r="10.38"/>
<circle id="Snow3" class="Snowball" cx="75.17" cy="82.85" r="10.38"/>
<path id="SnowCloud" class="SnowCloud" d="M136.95,47.5c0-0.19,0.01-0.39,0.01-0.58c0-22.92-18.58-41.5-41.5-41.5S53.97,24,53.97,46.92
	c0,0.17,0.01,0.34,0.01,0.51c-0.17,0-0.34-0.01-0.51-0.01c-22.92,0-41.5,18.58-41.5,41.5c0,21.05,15.68,38.43,36,41.13v0.17h1.44
	c1.33,0.13,2.69,0.2,4.06,0.2s2.72-0.07,4.06-0.2h72.44v-0.05c1.48,0.16,2.98,0.25,4.5,0.25c22.92,0,41.5-18.58,41.5-41.5
	C175.97,66.84,158.71,48.79,136.95,47.5z"/>
</svg>
