<?xml version="1.0" encoding="utf-8"?>
<!-- Generator: Adobe Illustrator 23.1.0, SVG Export Plug-In . SVG Version: 6.00 Build 0)  -->
<svg version="1.1" id="Layer_1" xmlns="http://www.w3.org/2000/svg" xmlns:xlink="http://www.w3.org/1999/xlink" x="0px" y="0px"
	 viewBox="0 0 127.56 127.56" style="enable-background:new 0 0 127.56 127.56;" xml:space="preserve">
<style type="text/css">
.SunRay{Fill: #F0EB51;}

.Sun{
    fill:#F0EB51;
    animation-iteration-count: infinite;
    animation-timing-function: linear;
    animation-name: Sun;
    animation-duration: 3s;
    animation-direction: alternate;
}	

@keyframes Sun{
   100%{ fill: #ebe314;
   r: 25px; }
}
</style>
<g>
	
		<rect x="93.36" y="79.4" transform="matrix(0.7071 -0.7071 0.7071 0.7071 -38.4229 94.6813)" class="SunRay" width="3.43" height="28.64"/>
	
		<rect x="79.26" y="32.51" transform="matrix(0.7071 -0.7071 0.7071 0.7071 3.1634 76.1763)" class="SunRay" width="28.55" height="3.52"/>
	
		<rect x="31.69" y="19.85" transform="matrix(0.7071 -0.7071 0.7071 0.7071 -14.3167 33.6553)" class="SunRay" width="3.56" height="28.51"/>
	
		<rect x="19.62" y="92.15" transform="matrix(0.7071 -0.7071 0.7071 0.7071 -56.4484 51.4843)" class="SunRay" width="28.61" height="3.46"/>
	<rect x="91.78" y="62.51" class="SunRay" width="28.64" height="3.43"/>
	<rect x="7.09" y="62.51" class="SunRay" width="28.64" height="3.43"/>
	<rect x="61.87" y="7.56" class="SunRay" width="3.43" height="28.64"/>
	<rect x="61.87" y="92.25" class="SunRay" width="3.43" height="28.64"/>
</g>
<circle class="Sun" cx="63.58" cy="64.22" r="19.84"/>
</svg>
