<?xml version="1.0" encoding="utf-8"?>
<!-- Generator: Adobe Illustrator 23.1.0, SVG Export Plug-In . SVG Version: 6.00 Build 0)  -->
<svg version="1.1" id="Layer_1" xmlns="http://www.w3.org/2000/svg" xmlns:xlink="http://www.w3.org/1999/xlink" x="0px" y="0px"
	 viewBox="0 0 170.08 198.43" style="enable-background:new 0 0 170.08 198.43;" xml:space="preserve">
<style type="text/css">
.ThunderCloud{
    fill:#B3B3B4;
    /* animation-fill-mode: forwards; */
}

.Thunder{
    fill:#EAAD4C;
    position: relative;
    animation-name: ThunderStrike;
    animation-delay: 2s;
    animation-duration: 4s;
    animation-iteration-count: infinite;
    animation-direction: alternate;
}

@keyframes ThunderStrike{
0%   {}
100%  {transform: translateY(50px);}
}
</style>
<g id="Thunder">
	<polygon class="Thunder" points="130.35,86.65 128.75,86.14 123.69,86.14 118.05,86.14 123.41,65.63 109.87,62.09 103.58,86.14 
		103.1,86.14 99.69,94.48 99.69,97.14 111.72,97.14 99.61,135.32 	"/>
	<polygon class="Thunder" points="74.89,86.65 73.29,86.14 68.23,86.14 62.59,86.14 67.95,65.63 54.41,62.09 48.12,86.14 47.65,86.14 
		44.23,94.48 44.23,97.14 56.26,97.14 44.16,135.32 	"/>
</g>
<path id="Cloud" class="ThunderCloud" d="M129.21,54.15c0-0.19,0.01-0.39,0.01-0.58c0-22.92-18.58-41.5-41.5-41.5
	c-22.92,0-41.5,18.58-41.5,41.5c0,0.17,0.01,0.34,0.01,0.51c-0.17,0-0.34-0.01-0.51-0.01c-22.92,0-41.5,18.58-41.5,41.5
	c0,21.05,15.68,38.43,36,41.13v0.17h1.44c1.33,0.13,2.69,0.2,4.06,0.2s2.72-0.07,4.06-0.2h72.44v-0.05c1.48,0.16,2.98,0.25,4.5,0.25
	c22.92,0,41.5-18.58,41.5-41.5C168.22,73.49,150.97,55.44,129.21,54.15z"/>
</svg>
